<svg width="536" height="316" viewBox="0 0 536 316" fill="none" xmlns="http://www.w3.org/2000/svg">
<g filter="url(#filter0_b_2338_248)">
<g clip-path="url(#clip0_2338_248)">
<rect y="0.5" width="536" height="315" rx="20" fill="url(#paint0_radial_2338_248)" fill-opacity="0.5"/>
<g opacity="0.4">
<circle cx="268.5" cy="321.5" r="342.5" fill="#52EF62" fill-opacity="0.1"/>
<circle cx="268.5" cy="321.5" r="341.924" stroke="#042507" stroke-opacity="0.1" stroke-width="1.15126"/>
<circle cx="268.5" cy="321.5" r="297.5" fill="#52EF62" fill-opacity="0.1"/>
<circle cx="268.5" cy="321.5" r="297" stroke="#042507" stroke-opacity="0.1"/>
<circle cx="268.5" cy="321.5" r="247.5" fill="#52EF62" fill-opacity="0.1"/>
<circle cx="268.5" cy="321.5" r="247" stroke="#042507" stroke-opacity="0.1"/>
<circle cx="268.5" cy="321.5" r="197.5" fill="#52EF62" fill-opacity="0.1"/>
<circle cx="268.5" cy="321.5" r="197" stroke="#042507" stroke-opacity="0.1"/>
<circle cx="268.5" cy="321.5" r="147.5" fill="#52EF62" fill-opacity="0.1"/>
<circle cx="268.5" cy="321.5" r="147.127" stroke="#042507" stroke-opacity="0.1" stroke-width="0.746835"/>
<circle cx="268.5" cy="321.5" r="47.5" fill="#52EF62" fill-opacity="0.1"/>
<circle cx="268.5" cy="321.5" r="47.3797" stroke="#042507" stroke-opacity="0.1" stroke-width="0.240506"/>
</g>
<path d="M242.5 68.4988L268 329.5" stroke="black" stroke-opacity="0.02" stroke-width="1.5"/>
<path d="M238.5 234.5L268 329.5" stroke="black" stroke-opacity="0.02" stroke-width="1.5"/>
<path d="M410.5 32L268 329.5" stroke="black" stroke-opacity="0.02" stroke-width="1.5"/>
<path d="M94.0004 178.499L242.501 338.999" stroke="black" stroke-opacity="0.02" stroke-width="1.5"/>
<g filter="url(#filter1_b_2338_248)">
<rect x="209.863" y="208.756" width="64.9297" height="22.1711" rx="11.0856" transform="rotate(14.2897 209.863 208.756)" fill="url(#paint1_linear_2338_248)" fill-opacity="0.05"/>
</g>
<g filter="url(#filter2_b_2338_248)">
<rect x="203.912" y="64.637" width="79.2576" height="27.0636" rx="13.5318" transform="rotate(-12.4879 203.912 64.637)" fill="url(#paint2_linear_2338_248)" fill-opacity="0.05"/>
</g>
<g filter="url(#filter3_b_2338_248)">
<rect x="382.027" y="-5.37842" width="79.2576" height="27.0636" rx="13.5318" transform="rotate(37.0044 382.027 -5.37842)" fill="url(#paint3_linear_2338_248)" fill-opacity="0.05"/>
</g>
<g filter="url(#filter4_b_2338_248)">
<rect x="56.5" y="201.703" width="79.2576" height="27.0636" rx="13.5318" transform="rotate(-49.9617 56.5 201.703)" fill="url(#paint4_linear_2338_248)" fill-opacity="0.05"/>
</g>
<path d="M121 81.9988L268 324" stroke="#2D3D2F" stroke-opacity="0.1"/>
<path d="M268.5 142.5L268.5 317.5" stroke="#2D3D2F" stroke-opacity="0.1"/>
<path d="M103.001 255.999L271.501 326" stroke="#2D3D2F" stroke-opacity="0.1"/>
<path d="M453.5 106.5L270.5 315.5" stroke="#2D3D2F" stroke-opacity="0.1"/>
<path d="M372.5 263.999L240 335.499" stroke="#2D3D2F" stroke-opacity="0.1"/>
<g filter="url(#filter5_f_2338_248)">
<circle cx="268.5" cy="375" r="89.5" fill="#0BFF24" fill-opacity="0.25"/>
</g>
<g filter="url(#filter6_bdi_2338_248)">
<rect x="51" y="64.416" width="125" height="42" rx="21" transform="rotate(-8.47213 51 64.416)" fill="url(#paint5_linear_2338_248)"/>
<rect x="51" y="64.416" width="125" height="42" rx="21" transform="rotate(-8.47213 51 64.416)" fill="url(#paint6_radial_2338_248)" fill-opacity="0.2"/>
<rect x="51.8523" y="65.0473" width="123.5" height="40.5" rx="20.25" transform="rotate(-8.47213 51.8523 65.0473)" stroke="url(#paint7_linear_2338_248)" stroke-width="1.5"/>
<path d="M85.7076 86.7058C84.4416 86.8943 83.3068 86.8423 82.3034 86.5496C81.309 86.2448 80.4944 85.7352 79.8595 85.021C79.2337 84.2946 78.8406 83.3933 78.6803 82.3172C78.5452 81.4099 78.5785 80.5475 78.7803 79.7302C78.9805 78.9024 79.3381 78.1535 79.853 77.4837C80.3785 76.8123 81.0502 76.2539 81.8682 75.8085C82.6952 75.351 83.6625 75.0397 84.7703 74.8747C85.8781 74.7097 86.8725 74.7611 87.7536 75.0289C88.6331 75.2861 89.3507 75.7238 89.9065 76.342C90.4729 76.9587 90.8244 77.7259 90.9612 78.6438C91.0507 79.2451 91.0362 79.8351 90.9174 80.4135C90.8092 80.9904 90.6185 81.5203 90.3454 82.0032C90.0706 82.4755 89.7305 82.8712 89.3252 83.1904C88.9182 83.4991 88.4668 83.6903 87.9709 83.7642C87.5806 83.8224 87.2356 83.7875 86.9362 83.6595C86.6457 83.5194 86.431 83.3088 86.2921 83.0275C86.1531 82.7462 86.1141 82.4123 86.1752 82.0258L86.2365 82.4373C86.0645 82.9482 85.7933 83.3714 85.4227 83.707C85.0521 84.0426 84.6241 84.2465 84.1388 84.3188C83.453 84.421 82.8569 84.2563 82.3505 83.8249C81.8547 83.3919 81.547 82.7745 81.4276 81.9727C81.3474 81.4346 81.3564 80.9156 81.4545 80.4157C81.551 79.9053 81.7202 79.4487 81.9622 79.046C82.2132 78.6311 82.5189 78.2944 82.8794 78.0358C83.2489 77.7651 83.6604 77.5959 84.1141 77.5284C84.7788 77.4294 85.3074 77.5394 85.7 77.8583C86.1016 78.1652 86.3177 78.6021 86.3482 79.1691L86.1876 79.1769L86.3505 77.6644L88.1388 77.398L87.7362 81.2109C87.6935 81.6487 87.7143 81.9691 87.7985 82.1722C87.8811 82.3648 88.0385 82.4438 88.2706 82.4093C88.5027 82.3747 88.7116 82.2573 88.8975 82.0571C89.0939 81.8553 89.2545 81.5941 89.3793 81.2735C89.5041 80.953 89.5865 80.601 89.6265 80.2176C89.6648 79.8236 89.6534 79.4209 89.5921 79.0095C89.4805 78.2604 89.2182 77.6578 88.8052 77.2017C88.3906 76.735 87.8524 76.4162 87.1906 76.2451C86.5378 76.062 85.7842 76.034 84.9296 76.1613C84.0117 76.298 83.2243 76.5501 82.5672 76.9176C81.9086 77.2745 81.3765 77.7205 80.9709 78.2554C80.5637 78.7798 80.2852 79.3713 80.1352 80.0299C79.9837 80.6779 79.9614 81.3607 80.0683 82.0781C80.1924 82.9116 80.49 83.606 80.9609 84.1613C81.4409 84.7045 82.0594 85.0923 82.8166 85.3246C83.5721 85.5464 84.4405 85.5842 85.4217 85.438C85.9809 85.3548 86.5261 85.2142 87.0574 85.0165C87.5993 84.8171 88.113 84.5734 88.5985 84.2854L89.2477 85.3858C88.788 85.7023 88.2519 85.9763 87.6393 86.2077C87.0373 86.4376 86.3934 86.6036 85.7076 86.7058ZM84.6792 82.7339C84.9113 82.6994 85.1197 82.6144 85.3045 82.479C85.4876 82.3331 85.6381 82.1489 85.756 81.9265C85.8844 81.7024 85.9711 81.4523 86.0163 81.1759C86.0614 80.8996 86.0611 80.6085 86.0156 80.3025C85.9448 79.8277 85.7791 79.475 85.5182 79.2442C85.2558 79.0029 84.9347 78.9106 84.5549 78.9671C84.3228 79.0017 84.1151 79.092 83.932 79.2379C83.7472 79.3732 83.5907 79.5529 83.4623 79.7769C83.3444 79.9994 83.2629 80.2488 83.2178 80.5251C83.1711 80.7909 83.1714 81.082 83.2185 81.3986C83.2908 81.8839 83.4574 82.2419 83.7182 82.4727C83.9896 82.7018 84.3099 82.7889 84.6792 82.7339ZM99.4286 84.5002L99.1575 82.6803L99.3205 82.6883C99.2714 83.2996 99.0097 83.8239 98.5357 84.2611C98.06 84.6879 97.4582 84.9555 96.7302 85.0639C95.9917 85.1739 95.323 85.101 94.7241 84.8451C94.1342 84.5771 93.6451 84.1538 93.257 83.5754C92.8689 82.9969 92.612 82.2856 92.4863 81.4416C92.359 80.5871 92.4011 79.8205 92.6128 79.1419C92.8245 78.4633 93.1787 77.9091 93.6754 77.4792C94.1828 77.0477 94.8057 76.777 95.5442 76.667C96.3038 76.5539 96.959 76.645 97.5099 76.9404C98.0592 77.2252 98.4398 77.6808 98.6517 78.3071L98.4483 78.3535L97.6681 73.1153L99.6779 72.816L101.375 84.2103L99.4286 84.5002ZM97.073 83.3467C97.7165 83.2508 98.1952 82.953 98.509 82.4533C98.8318 81.9415 98.9327 81.2794 98.8117 80.4671C98.6907 79.6547 98.402 79.056 97.9456 78.6711C97.4893 78.2861 96.9393 78.1415 96.2957 78.2374C95.6627 78.3317 95.1848 78.6347 94.862 79.1466C94.5377 79.6478 94.436 80.3046 94.557 81.117C94.678 81.9294 94.9667 82.528 95.4231 82.913C95.8794 83.298 96.4294 83.4425 97.073 83.3467ZM106.369 83.6281C105.81 83.7114 105.308 83.6676 104.862 83.4968C104.425 83.3139 104.065 83.0332 103.782 82.6547C103.509 82.2747 103.335 81.8262 103.258 81.3092L102.437 75.802L104.431 75.505L105.19 80.6008C105.264 81.0966 105.441 81.4531 105.722 81.6701C106.013 81.8856 106.385 81.9596 106.839 81.892C107.25 81.8307 107.595 81.6823 107.872 81.4469C108.161 81.2098 108.369 80.9091 108.498 80.5448C108.636 80.1684 108.673 79.7639 108.609 79.3313L109.102 81.2313C108.926 81.8614 108.601 82.3951 108.127 82.8324C107.662 83.2576 107.076 83.5228 106.369 83.6281ZM109.226 83.0408L108.943 81.1418L108.88 81.1512L107.961 74.9793L109.97 74.6799L111.173 82.7509L109.226 83.0408ZM117.124 82.0262C116.27 82.1534 115.494 82.0857 114.797 81.8228C114.11 81.5584 113.541 81.1364 113.088 80.5568C112.645 79.9757 112.363 79.2736 112.24 78.4507C112.117 77.6278 112.184 76.8791 112.439 76.2048C112.704 75.5184 113.127 74.9539 113.708 74.5115C114.287 74.0585 114.999 73.7691 115.843 73.6434C116.645 73.524 117.366 73.5891 118.007 73.8387C118.647 74.0777 119.175 74.4736 119.592 75.0262C120.008 75.5789 120.276 76.2561 120.396 77.0579C120.418 77.2056 120.433 77.3436 120.441 77.4717C120.45 77.5999 120.453 77.7289 120.45 77.8586L113.566 78.884L113.359 77.4914L118.708 76.6946L118.353 77.1357C118.24 76.3761 117.981 75.8323 117.576 75.5044C117.171 75.1764 116.658 75.0588 116.035 75.1515C115.36 75.2521 114.857 75.5644 114.525 76.0883C114.204 76.6106 114.108 77.3097 114.239 78.1853C114.368 79.0505 114.662 79.686 115.121 80.0921C115.59 80.4861 116.188 80.6288 116.916 80.5204C117.338 80.4575 117.695 80.3234 117.988 80.118C118.281 79.9126 118.477 79.6354 118.576 79.2863L120.46 79.0058C120.309 79.8047 119.95 80.4729 119.383 81.0103C118.827 81.5461 118.074 81.8847 117.124 82.0262ZM122.755 81.0257L121.058 69.6314L123.052 69.3344L124.749 80.7287L122.755 81.0257ZM131.732 79.8503C130.962 79.965 130.302 79.8799 129.753 79.5951C129.212 79.2981 128.836 78.8365 128.624 78.2102L128.764 78.1732L129.05 80.088L127.103 80.378L125.406 68.9837L127.4 68.6867L128.166 73.8299L128.019 73.8195C128.066 73.1977 128.317 72.675 128.772 72.2514C129.237 71.8263 129.849 71.5571 130.609 71.444C131.326 71.3371 131.975 71.4185 132.554 71.688C133.143 71.9455 133.631 72.3635 134.019 72.9419C134.407 73.5204 134.664 74.2316 134.79 75.0757C134.917 75.9302 134.875 76.6968 134.663 77.3754C134.452 78.054 134.097 78.6082 133.601 79.0381C133.104 79.468 132.481 79.7387 131.732 79.8503ZM130.98 78.2799C131.624 78.184 132.102 77.8862 132.416 77.3865C132.729 76.8763 132.824 76.215 132.703 75.4026C132.582 74.5903 132.293 73.9916 131.837 73.6066C131.391 73.2201 130.847 73.0748 130.203 73.1706C129.57 73.2649 129.092 73.568 128.769 74.0798C128.445 74.581 128.343 75.2378 128.464 76.0502C128.585 76.8626 128.874 77.4612 129.33 77.8462C129.787 78.2312 130.337 78.3757 130.98 78.2799ZM137.123 78.8855L135.921 70.8145L137.915 70.5175L139.117 78.5884L137.123 78.8855ZM135.628 69.4993L135.3 67.2996L137.468 66.9766L137.796 69.1764L135.628 69.4993ZM145.026 77.87C144.035 78.0177 143.267 77.8949 142.723 77.5014C142.188 77.0957 141.85 76.4234 141.711 75.4845L140.631 68.2364L142.53 67.1933L143.728 75.2326C143.786 75.6229 143.934 75.8974 144.174 76.0558C144.413 76.2143 144.759 76.2598 145.213 76.1922C145.392 76.1655 145.549 76.1313 145.683 76.0898C145.826 76.0362 145.958 75.9788 146.078 75.9177L146.309 77.4686C146.192 77.5508 146.02 77.625 145.792 77.6912C145.566 77.768 145.311 77.8276 145.026 77.87ZM139.587 71.8699L139.354 70.3032L145.114 69.4452L145.347 71.0119L139.587 71.8699ZM151.077 76.9687C149.959 77.1353 149.033 77.0359 148.299 76.6707C147.564 76.295 147.102 75.6951 146.915 74.871L148.735 74.6C148.849 75.0036 149.09 75.2857 149.459 75.4464C149.828 75.6072 150.298 75.6451 150.868 75.5602C151.385 75.4832 151.758 75.3467 151.987 75.1508C152.226 74.9427 152.323 74.6856 152.277 74.3797C152.244 74.1581 152.143 73.9898 151.975 73.8746C151.806 73.7489 151.508 73.6692 151.082 73.6356L149.74 73.5282C148.825 73.4703 148.122 73.2731 147.63 72.9366C147.146 72.588 146.859 72.1078 146.768 71.4958C146.656 70.7468 146.854 70.1188 147.361 69.6119C147.877 69.0929 148.641 68.758 149.654 68.6072C150.656 68.4579 151.49 68.5547 152.156 68.8977C152.831 69.2286 153.256 69.7638 153.431 70.5034L151.611 70.7745C151.509 70.4553 151.303 70.2325 150.993 70.1062C150.694 69.9782 150.302 69.9504 149.816 70.0227C149.363 70.0903 149.031 70.2152 148.821 70.3975C148.609 70.5692 148.524 70.7922 148.564 71.0665C148.596 71.2775 148.712 71.4435 148.914 71.5645C149.113 71.6749 149.432 71.7515 149.87 71.7941L151.31 71.9032C152.128 71.9647 152.77 72.1871 153.237 72.5705C153.714 72.9523 153.998 73.4439 154.088 74.0453C154.202 74.8155 153.996 75.4556 153.468 75.9656C152.94 76.4756 152.143 76.81 151.077 76.9687Z" fill="#2D2E3D" fill-opacity="0.9"/>
</g>
<g filter="url(#filter7_bdi_2338_248)">
<g clip-path="url(#clip1_2338_248)">
<rect x="217.357" y="108.518" width="123" height="42" rx="21" transform="rotate(14.98 217.357 108.518)" fill="url(#paint8_linear_2338_248)"/>
<rect x="217.357" y="108.518" width="123" height="42" rx="21" transform="rotate(14.98 217.357 108.518)" fill="url(#paint9_radial_2338_248)" fill-opacity="0.2"/>
<path d="M240.315 142.776C239.079 142.445 238.058 141.946 237.254 141.278C236.463 140.603 235.919 139.811 235.621 138.903C235.336 137.988 235.334 137.004 235.615 135.953C235.852 135.067 236.226 134.289 236.736 133.62C237.249 132.94 237.875 132.395 238.614 131.986C239.364 131.579 240.202 131.334 241.13 131.251C242.07 131.161 243.082 131.26 244.164 131.55C245.246 131.839 246.138 132.282 246.839 132.878C247.544 133.464 248.028 134.151 248.292 134.94C248.566 135.731 248.583 136.575 248.343 137.471C248.186 138.058 247.938 138.594 247.599 139.077C247.27 139.563 246.884 139.974 246.441 140.308C246.001 140.632 245.532 140.86 245.033 140.991C244.537 141.112 244.046 141.108 243.562 140.978C243.181 140.876 242.878 140.707 242.655 140.471C242.444 140.226 242.331 139.948 242.315 139.634C242.3 139.321 242.397 138.999 242.607 138.669L242.499 139.071C242.138 139.471 241.721 139.751 241.247 139.912C240.774 140.072 240.3 140.089 239.826 139.962C239.156 139.783 238.675 139.395 238.382 138.797C238.099 138.203 238.063 137.514 238.272 136.731C238.413 136.205 238.628 135.733 238.917 135.313C239.208 134.883 239.545 134.532 239.928 134.259C240.323 133.978 240.737 133.791 241.171 133.697C241.618 133.596 242.063 133.604 242.506 133.723C243.155 133.896 243.596 134.208 243.829 134.657C244.076 135.098 244.1 135.585 243.902 136.117L243.752 136.06L244.503 134.738L246.25 135.205L244.363 138.543C244.15 138.927 244.041 139.229 244.037 139.449C244.037 139.659 244.15 139.794 244.376 139.855C244.603 139.915 244.841 139.891 245.092 139.781C245.352 139.674 245.603 139.498 245.845 139.254C246.087 139.01 246.303 138.72 246.492 138.384C246.684 138.038 246.834 137.664 246.942 137.262C247.137 136.53 247.137 135.873 246.939 135.29C246.745 134.697 246.378 134.19 245.839 133.77C245.313 133.342 244.632 133.017 243.798 132.793C242.901 132.553 242.079 132.471 241.33 132.547C240.583 132.612 239.918 132.809 239.333 133.139C238.751 133.458 238.26 133.89 237.86 134.434C237.463 134.968 237.171 135.586 236.983 136.286C236.765 137.101 236.762 137.856 236.973 138.553C237.197 139.242 237.61 139.844 238.213 140.359C238.817 140.863 239.599 141.243 240.557 141.499C241.103 141.646 241.66 141.734 242.226 141.764C242.802 141.796 243.37 141.777 243.93 141.706L244.088 142.974C243.54 143.082 242.939 143.12 242.285 143.088C241.642 143.059 240.985 142.955 240.315 142.776ZM240.952 138.723C241.179 138.784 241.404 138.789 241.627 138.738C241.854 138.677 242.065 138.568 242.262 138.411C242.468 138.257 242.648 138.062 242.799 137.826C242.95 137.591 243.066 137.323 243.146 137.024C243.27 136.561 243.258 136.171 243.111 135.856C242.966 135.53 242.708 135.317 242.337 135.218C242.111 135.157 241.884 135.158 241.658 135.219C241.435 135.269 241.22 135.372 241.013 135.526C240.816 135.683 240.642 135.88 240.491 136.115C240.342 136.341 240.226 136.608 240.144 136.917C240.017 137.391 240.027 137.786 240.175 138.101C240.332 138.419 240.592 138.627 240.952 138.723ZM252.822 146.123C252.07 145.922 251.504 145.582 251.123 145.105C250.756 144.62 250.6 144.049 250.655 143.39L250.814 143.416L249.465 148.454L247.518 147.933L250.475 136.882L252.376 137.391L251.9 139.168L251.754 139.096C252.055 138.547 252.509 138.172 253.115 137.97C253.722 137.767 254.396 137.766 255.138 137.964C255.838 138.152 256.401 138.484 256.825 138.962C257.262 139.432 257.544 140.01 257.67 140.695C257.796 141.381 257.748 142.135 257.528 142.96C257.304 143.794 256.96 144.481 256.496 145.019C256.032 145.557 255.486 145.925 254.86 146.121C254.233 146.318 253.554 146.319 252.822 146.123ZM252.758 144.383C253.386 144.551 253.944 144.469 254.431 144.135C254.92 143.791 255.271 143.223 255.483 142.429C255.696 141.636 255.669 140.972 255.404 140.437C255.148 139.905 254.706 139.555 254.078 139.386C253.46 139.221 252.901 139.309 252.401 139.65C251.904 139.981 251.549 140.543 251.337 141.336C251.125 142.13 251.151 142.794 251.417 143.329C251.682 143.863 252.129 144.215 252.758 144.383ZM261.801 148.525C260.966 148.302 260.282 147.931 259.747 147.413C259.222 146.897 258.868 146.283 258.683 145.571C258.508 144.862 258.528 144.105 258.743 143.301C258.958 142.498 259.317 141.837 259.82 141.32C260.336 140.796 260.948 140.446 261.658 140.272C262.37 140.087 263.138 140.105 263.962 140.325C264.745 140.535 265.381 140.882 265.87 141.366C266.362 141.84 266.688 142.413 266.851 143.086C267.013 143.759 266.989 144.487 266.78 145.27C266.741 145.414 266.7 145.546 266.657 145.667C266.613 145.788 266.565 145.908 266.511 146.026L259.788 144.227L260.152 142.867L265.376 144.265L264.875 144.528C265.073 143.786 265.052 143.184 264.811 142.722C264.571 142.26 264.146 141.948 263.538 141.785C262.879 141.609 262.293 141.695 261.78 142.044C261.277 142.395 260.911 142.998 260.683 143.853C260.457 144.698 260.473 145.399 260.733 145.954C261.006 146.502 261.498 146.871 262.209 147.061C262.622 147.171 263.003 147.191 263.353 147.119C263.704 147.047 263.994 146.871 264.224 146.59L266.063 147.082C265.607 147.755 265.012 148.225 264.278 148.492C263.554 148.763 262.728 148.773 261.801 148.525ZM267.365 149.848L269.474 141.966L271.375 142.474L270.866 144.376L270.913 144.388L269.312 150.37L267.365 149.848ZM270.412 146.258L270.712 144.334C271.077 143.714 271.527 143.288 272.064 143.056C272.601 142.825 273.178 142.791 273.797 142.957C274.013 143.015 274.162 143.077 274.244 143.143L273.752 144.982C273.706 144.948 273.636 144.918 273.544 144.893C273.454 144.858 273.342 144.823 273.208 144.787C272.455 144.585 271.85 144.6 271.391 144.831C270.931 145.061 270.605 145.537 270.412 146.258ZM276.828 152.546C276.034 152.334 275.38 151.971 274.866 151.458C274.362 150.948 274.018 150.337 273.833 149.625C273.661 148.905 273.681 148.149 273.894 147.355C274.106 146.562 274.463 145.907 274.966 145.39C275.482 144.865 276.085 144.508 276.777 144.317C277.478 144.13 278.226 144.142 279.019 144.354C279.669 144.528 280.223 144.809 280.682 145.197C281.144 145.574 281.486 146.03 281.708 146.564C281.932 147.088 282.013 147.651 281.951 148.253L280.081 147.752C280.081 147.299 279.953 146.912 279.697 146.589C279.441 146.267 279.086 146.045 278.633 145.924C278.21 145.811 277.817 145.816 277.453 145.939C277.099 146.065 276.788 146.297 276.521 146.634C276.254 146.971 276.053 147.392 275.918 147.897C275.78 148.412 275.743 148.883 275.806 149.308C275.869 149.733 276.026 150.096 276.277 150.395C276.531 150.683 276.864 150.883 277.276 150.993C277.73 151.115 278.148 151.099 278.531 150.948C278.913 150.796 279.218 150.525 279.444 150.132L281.315 150.633C281.067 151.185 280.709 151.636 280.241 151.985C279.785 152.327 279.261 152.551 278.669 152.658C278.091 152.757 277.477 152.72 276.828 152.546ZM285.666 154.911C284.831 154.688 284.147 154.317 283.612 153.798C283.087 153.282 282.732 152.669 282.548 151.957C282.373 151.247 282.393 150.491 282.608 149.687C282.823 148.883 283.182 148.223 283.685 147.706C284.201 147.182 284.813 146.832 285.522 146.657C286.234 146.473 287.003 146.49 287.827 146.711C288.61 146.92 289.246 147.267 289.735 147.751C290.226 148.225 290.553 148.799 290.716 149.471C290.878 150.144 290.854 150.872 290.645 151.655C290.606 151.8 290.565 151.932 290.522 152.053C290.478 152.174 290.43 152.293 290.376 152.412L283.653 150.613L284.016 149.252L289.241 150.65L288.74 150.914C288.938 150.172 288.917 149.57 288.676 149.108C288.435 148.646 288.011 148.334 287.403 148.171C286.744 147.995 286.157 148.081 285.645 148.429C285.142 148.781 284.776 149.384 284.547 150.239C284.321 151.084 284.338 151.784 284.598 152.34C284.871 152.888 285.363 153.257 286.074 153.447C286.486 153.557 286.868 153.576 287.218 153.504C287.569 153.433 287.859 153.256 288.089 152.975L289.928 153.468C289.472 154.141 288.877 154.611 288.143 154.878C287.419 155.148 286.593 155.159 285.666 154.911ZM291.23 156.234L293.339 148.351L295.24 148.86L294.744 150.715L294.79 150.727L293.177 156.755L291.23 156.234ZM296.763 157.715L298.095 152.738C298.224 152.253 298.198 151.855 298.017 151.541C297.836 151.228 297.509 151.007 297.035 150.881C296.622 150.77 296.227 150.764 295.847 150.861C295.478 150.961 295.157 151.151 294.883 151.431C294.62 151.714 294.43 152.072 294.314 152.505L294.618 150.565C295.04 150.06 295.555 149.706 296.161 149.504C296.77 149.292 297.435 149.282 298.156 149.475C299.011 149.704 299.611 150.124 299.956 150.735C300.31 151.349 300.38 152.057 300.165 152.861L298.726 158.24L296.763 157.715ZM304.137 159.853C303.168 159.594 302.513 159.176 302.17 158.598C301.841 158.013 301.799 157.262 302.044 156.345L303.939 149.266L306.096 149.065L303.995 156.917C303.893 157.298 303.92 157.609 304.077 157.85C304.233 158.09 304.533 158.27 304.976 158.388C305.151 158.435 305.308 158.466 305.448 158.482C305.6 158.489 305.744 158.489 305.879 158.481L305.473 159.996C305.333 160.024 305.146 160.024 304.911 159.994C304.673 159.975 304.415 159.928 304.137 159.853ZM301.535 152.184L301.944 150.654L307.57 152.159L307.161 153.69L301.535 152.184Z" fill="#2D2E3D" fill-opacity="0.9"/>
</g>
<rect x="217.888" y="109.436" width="121.5" height="40.5" rx="20.25" transform="rotate(14.98 217.888 109.436)" stroke="url(#paint10_linear_2338_248)" stroke-width="1.5"/>
</g>
<g filter="url(#filter8_bdi_2338_248)">
<g clip-path="url(#clip2_2338_248)">
<rect x="394.871" y="68" width="124" height="42" rx="21" transform="rotate(15 394.871 68)" fill="url(#paint11_linear_2338_248)"/>
<rect x="394.871" y="68" width="124" height="42" rx="21" transform="rotate(15 394.871 68)" fill="url(#paint12_radial_2338_248)" fill-opacity="0.2"/>
<path d="M417.915 102.293C416.678 101.961 415.658 101.462 414.854 100.793C414.064 100.118 413.519 99.3259 413.221 98.4179C412.937 97.5023 412.935 96.5191 413.217 95.4682C413.454 94.5821 413.828 93.8044 414.339 93.1351C414.852 92.4555 415.478 91.911 416.218 91.5017C416.967 91.0951 417.806 90.8505 418.733 90.7678C419.674 90.6775 420.685 90.7773 421.767 91.0672C422.849 91.3571 423.741 91.8003 424.442 92.3969C425.146 92.9831 425.63 93.6705 425.894 94.4589C426.168 95.2501 426.185 96.0938 425.945 96.9902C425.787 97.5775 425.539 98.1128 425.199 98.5961C424.87 99.0822 424.485 99.4923 424.042 99.8264C423.601 100.15 423.132 100.378 422.633 100.509C422.137 100.63 421.646 100.626 421.162 100.496C420.781 100.394 420.479 100.224 420.255 99.9878C420.044 99.7436 419.931 99.4648 419.916 99.1515C419.9 98.8382 419.998 98.5164 420.208 98.1861L420.1 98.5879C419.739 98.9881 419.321 99.2683 418.848 99.4285C418.374 99.5887 417.9 99.6053 417.426 99.4783C416.757 99.2989 416.275 98.9104 415.983 98.313C415.7 97.7183 415.664 97.0294 415.874 96.2464C416.015 95.7209 416.23 95.2485 416.519 94.829C416.811 94.3992 417.148 94.0478 417.53 93.7748C417.925 93.4943 418.34 93.3072 418.774 93.2136C419.22 93.1124 419.665 93.1212 420.108 93.2399C420.757 93.4138 421.198 93.7253 421.432 94.1742C421.678 94.6156 421.702 95.1025 421.504 95.6348L421.354 95.5779L422.106 94.2554L423.852 94.7234L421.964 98.0604C421.75 98.4449 421.642 98.7471 421.638 98.967C421.637 99.1766 421.75 99.3117 421.977 99.3725C422.203 99.4332 422.442 99.4087 422.692 99.2991C422.953 99.1922 423.204 99.0166 423.446 98.7723C423.688 98.528 423.904 98.238 424.093 97.9022C424.286 97.5561 424.435 97.1822 424.543 96.7803C424.739 96.0488 424.739 95.3916 424.541 94.8087C424.347 94.2155 423.98 93.7087 423.441 93.2882C422.916 92.8602 422.235 92.5344 421.401 92.3108C420.504 92.0706 419.682 91.9882 418.933 92.0636C418.186 92.1286 417.521 92.3257 416.936 92.6548C416.353 92.9736 415.862 93.4052 415.462 93.9496C415.065 94.4837 414.773 95.1011 414.585 95.8017C414.367 96.6156 414.363 97.3711 414.574 98.0681C414.798 98.7575 415.211 99.3595 415.813 99.8742C416.418 100.379 417.199 100.759 418.157 101.016C418.703 101.162 419.259 101.25 419.826 101.281C420.402 101.314 420.97 101.295 421.53 101.224L421.688 102.492C421.14 102.599 420.539 102.637 419.885 102.605C419.241 102.576 418.584 102.472 417.915 102.293ZM418.553 98.2398C418.78 98.3005 419.005 98.3056 419.228 98.255C419.454 98.1942 419.666 98.0852 419.863 97.928C420.07 97.7737 420.249 97.5788 420.4 97.3433C420.552 97.1078 420.667 96.8406 420.747 96.5418C420.872 96.0782 420.86 95.6886 420.713 95.373C420.568 95.0472 420.31 94.8346 419.94 94.7352C419.713 94.6744 419.486 94.6745 419.26 94.7354C419.037 94.786 418.822 94.8884 418.615 95.0428C418.418 95.1999 418.244 95.3962 418.093 95.6317C417.944 95.8569 417.828 96.124 417.745 96.4331C417.618 96.9071 417.629 97.3018 417.776 97.6174C417.934 97.9357 418.193 98.1432 418.553 98.2398ZM431.379 105.735L431.855 103.957L432.001 104.03C431.713 104.571 431.264 104.947 430.655 105.16C430.049 105.362 429.39 105.367 428.679 105.177C427.958 104.984 427.374 104.65 426.926 104.177C426.492 103.696 426.212 103.113 426.086 102.428C425.961 101.743 426.008 100.988 426.229 100.164C426.453 99.3294 426.797 98.6431 427.261 98.105C427.726 97.5668 428.271 97.1995 428.898 97.0031C429.535 96.8094 430.214 96.8092 430.936 97.0024C431.677 97.2012 432.242 97.5458 432.63 98.0362C433.02 98.5162 433.188 99.0857 433.133 99.7445L432.928 99.7062L434.298 94.5906L436.261 95.1165L433.28 106.244L431.379 105.735ZM429.677 103.738C430.306 103.907 430.864 103.824 431.35 103.491C431.85 103.15 432.207 102.583 432.419 101.79C432.632 100.996 432.605 100.332 432.34 99.7972C432.075 99.2623 431.628 98.9107 431 98.7423C430.381 98.5766 429.822 98.6642 429.322 99.0051C428.825 99.3357 428.47 99.8977 428.258 100.691C428.045 101.484 428.072 102.148 428.337 102.683C428.602 103.218 429.049 103.57 429.677 103.738ZM435.584 106.861L437.696 98.9795L439.597 99.4888L439.087 101.39L439.134 101.402L437.531 107.383L435.584 106.861ZM438.633 103.272L438.933 101.348C439.298 100.728 439.749 100.303 440.286 100.071C440.822 99.8393 441.4 99.8064 442.018 99.972C442.235 100.03 442.384 100.092 442.465 100.158L441.973 101.997C441.927 101.963 441.857 101.933 441.764 101.908C441.674 101.873 441.562 101.838 441.429 101.802C440.676 101.6 440.071 101.615 439.611 101.845C439.152 102.075 438.826 102.551 438.633 103.272ZM444.243 112.743C443.203 112.464 442.408 112.008 441.86 111.376C441.322 110.746 441.095 110.028 441.178 109.222L443.033 109.719C443.054 110.011 443.199 110.271 443.47 110.498C443.748 110.738 444.139 110.926 444.644 111.061C445.376 111.257 445.961 111.238 446.399 111.002C446.835 110.776 447.141 110.334 447.318 109.674L447.774 107.974L447.904 108.042C447.626 108.586 447.188 108.966 446.589 109.181C445.993 109.386 445.329 109.39 444.598 109.194C443.897 109.006 443.328 108.677 442.891 108.207C442.464 107.739 442.185 107.173 442.054 106.508C441.926 105.833 441.968 105.099 442.181 104.306C442.396 103.502 442.733 102.841 443.192 102.324C443.651 101.806 444.192 101.455 444.817 101.268C445.454 101.075 446.133 101.075 446.854 101.268C447.596 101.467 448.156 101.81 448.533 102.297C448.923 102.777 449.091 103.347 449.036 104.006L448.908 103.988L449.409 102.118L451.31 102.627L449.285 110.185C448.984 111.308 448.381 112.096 447.476 112.549C446.578 113.015 445.5 113.08 444.243 112.743ZM445.646 107.818C446.274 107.987 446.83 107.909 447.314 107.586C447.812 107.256 448.164 106.704 448.371 105.931C448.578 105.158 448.547 104.51 448.279 103.985C448.011 103.461 447.563 103.114 446.935 102.946C446.316 102.78 445.759 102.863 445.262 103.193C444.767 103.513 444.416 104.06 444.209 104.833C444.002 105.605 444.033 106.254 444.301 106.779C444.569 107.303 445.017 107.65 445.646 107.818ZM451.502 111.127L453.614 103.245L455.515 103.754L455.006 105.655L455.052 105.668L453.45 111.649L451.502 111.127ZM454.551 107.538L454.851 105.614C455.216 104.994 455.667 104.568 456.204 104.336C456.741 104.105 457.318 104.072 457.937 104.237C458.153 104.295 458.302 104.357 458.384 104.423L457.891 106.263C457.845 106.228 457.776 106.198 457.683 106.174C457.593 106.138 457.481 106.103 457.347 106.067C456.595 105.866 455.989 105.88 455.53 106.11C455.071 106.341 454.744 106.816 454.551 107.538ZM461.088 113.861C460.253 113.637 459.569 113.266 459.034 112.747C458.51 112.231 458.155 111.617 457.971 110.905C457.796 110.196 457.817 109.44 458.032 108.636C458.247 107.832 458.606 107.172 459.109 106.655C459.625 106.131 460.238 105.782 460.947 105.607C461.659 105.423 462.427 105.441 463.252 105.661C464.035 105.871 464.671 106.218 465.159 106.703C465.651 107.177 465.977 107.75 466.139 108.423C466.301 109.096 466.278 109.824 466.068 110.607C466.029 110.751 465.988 110.884 465.945 111.005C465.901 111.125 465.853 111.245 465.799 111.363L459.076 109.562L459.44 108.202L464.664 109.601L464.163 109.865C464.362 109.123 464.341 108.521 464.1 108.059C463.86 107.597 463.435 107.284 462.827 107.121C462.168 106.945 461.582 107.031 461.069 107.379C460.566 107.73 460.2 108.333 459.971 109.189C459.745 110.033 459.761 110.734 460.021 111.289C460.294 111.837 460.786 112.206 461.497 112.397C461.909 112.507 462.29 112.527 462.641 112.455C462.991 112.383 463.281 112.207 463.511 111.926L465.35 112.419C464.894 113.092 464.299 113.562 463.565 113.829C462.841 114.099 462.015 114.109 461.088 113.861ZM470.254 116.317C469.42 116.093 468.735 115.722 468.201 115.204C467.676 114.688 467.322 114.074 467.137 113.362C466.963 112.652 466.983 111.896 467.199 111.092C467.414 110.288 467.773 109.628 468.276 109.111C468.792 108.587 469.405 108.238 470.114 108.063C470.826 107.879 471.594 107.897 472.418 108.118C473.201 108.327 473.837 108.675 474.326 109.159C474.817 109.633 475.144 110.206 475.306 110.879C475.468 111.552 475.444 112.28 475.234 113.063C475.196 113.207 475.155 113.34 475.111 113.461C475.068 113.582 475.019 113.701 474.965 113.819L468.243 112.018L468.607 110.658L473.831 112.057L473.33 112.321C473.528 111.579 473.507 110.977 473.267 110.515C473.026 110.053 472.602 109.74 471.994 109.578C471.335 109.401 470.748 109.487 470.235 109.835C469.733 110.186 469.367 110.79 469.138 111.645C468.911 112.49 468.928 113.19 469.188 113.745C469.461 114.293 469.952 114.662 470.663 114.853C471.075 114.963 471.457 114.983 471.807 114.911C472.158 114.839 472.448 114.663 472.678 114.382L474.517 114.875C474.061 115.548 473.465 116.018 472.731 116.285C472.007 116.555 471.182 116.565 470.254 116.317ZM475.818 117.642L477.93 109.76L479.831 110.269L479.334 112.124L479.38 112.136L477.765 118.164L475.818 117.642ZM481.351 119.125L482.684 114.148C482.814 113.664 482.788 113.265 482.607 112.951C482.426 112.638 482.099 112.418 481.625 112.291C481.212 112.18 480.817 112.174 480.437 112.271C480.068 112.371 479.747 112.56 479.473 112.84C479.209 113.123 479.02 113.481 478.904 113.914L479.208 111.974C479.631 111.469 480.145 111.116 480.751 110.914C481.36 110.701 482.025 110.692 482.747 110.885C483.602 111.114 484.201 111.534 484.546 112.146C484.9 112.76 484.97 113.469 484.754 114.272L483.313 119.65L481.351 119.125Z" fill="#2D2E3D" fill-opacity="0.9"/>
</g>
<rect x="395.401" y="68.9186" width="122.5" height="40.5" rx="20.25" transform="rotate(15 395.401 68.9186)" stroke="url(#paint13_linear_2338_248)" stroke-width="1.5"/>
</g>
<g filter="url(#filter9_bdi_2338_248)">
<rect x="337" y="243.758" width="116" height="42" rx="21" transform="rotate(-6.31431 337 243.758)" fill="url(#paint14_linear_2338_248)"/>
<rect x="337" y="243.758" width="116" height="42" rx="21" transform="rotate(-6.31431 337 243.758)" fill="url(#paint15_radial_2338_248)" fill-opacity="0.2"/>
<rect x="337.828" y="244.421" width="114.5" height="40.5" rx="20.25" transform="rotate(-6.31431 337.828 244.421)" stroke="url(#paint16_linear_2338_248)" stroke-width="1.5"/>
<path d="M371.152 267.305C369.88 267.446 368.748 267.351 367.757 267.021C366.774 266.678 365.979 266.139 365.372 265.401C364.774 264.652 364.415 263.736 364.295 262.655C364.195 261.743 364.26 260.882 364.493 260.073C364.724 259.254 365.109 258.519 365.649 257.869C366.2 257.218 366.892 256.685 367.726 256.271C368.57 255.845 369.548 255.57 370.661 255.447C371.775 255.324 372.766 255.412 373.637 255.713C374.506 256.003 375.207 256.468 375.739 257.106C376.281 257.744 376.604 258.524 376.706 259.446C376.773 260.051 376.736 260.64 376.596 261.213C376.466 261.786 376.255 262.308 375.964 262.78C375.672 263.242 375.317 263.624 374.9 263.928C374.482 264.221 374.023 264.395 373.525 264.451C373.133 264.494 372.789 264.446 372.495 264.307C372.21 264.156 372.003 263.937 371.875 263.651C371.747 263.365 371.72 263.03 371.796 262.646L371.842 263.059C371.651 263.563 371.364 263.976 370.981 264.297C370.598 264.619 370.162 264.807 369.675 264.86C368.986 264.937 368.396 264.75 367.906 264.3C367.427 263.848 367.143 263.22 367.054 262.414C366.994 261.873 367.022 261.355 367.139 260.859C367.255 260.353 367.441 259.903 367.698 259.509C367.965 259.104 368.283 258.779 368.653 258.534C369.032 258.278 369.45 258.124 369.906 258.074C370.574 258 371.098 258.13 371.478 258.463C371.868 258.785 372.067 259.23 372.076 259.798L371.916 259.799L372.135 258.294L373.932 258.095L373.387 261.89C373.327 262.326 373.336 262.647 373.413 262.853C373.488 263.049 373.642 263.134 373.875 263.108C374.109 263.082 374.322 262.973 374.515 262.779C374.719 262.585 374.889 262.33 375.026 262.015C375.163 261.699 375.258 261.35 375.313 260.969C375.366 260.577 375.37 260.174 375.324 259.76C375.241 259.007 375.001 258.395 374.606 257.924C374.209 257.442 373.683 257.103 373.028 256.907C372.383 256.7 371.631 256.643 370.772 256.739C369.85 256.841 369.053 257.063 368.383 257.405C367.711 257.737 367.163 258.163 366.737 258.682C366.311 259.191 366.01 259.771 365.835 260.424C365.66 261.066 365.612 261.747 365.691 262.468C365.784 263.306 366.055 264.011 366.505 264.583C366.964 265.144 367.568 265.555 368.315 265.816C369.062 266.066 369.929 266.136 370.915 266.027C371.476 265.965 372.027 265.845 372.565 265.667C373.114 265.489 373.636 265.265 374.133 264.995L374.74 266.119C374.269 266.418 373.722 266.672 373.102 266.88C372.491 267.087 371.842 267.229 371.152 267.305ZM370.274 263.297C370.508 263.271 370.719 263.194 370.909 263.066C371.097 262.927 371.255 262.749 371.381 262.531C371.518 262.312 371.614 262.065 371.669 261.79C371.725 261.516 371.735 261.225 371.701 260.918C371.649 260.441 371.496 260.082 371.244 259.841C370.991 259.59 370.674 259.486 370.292 259.528C370.059 259.554 369.848 259.636 369.659 259.775C369.47 259.904 369.306 260.077 369.17 260.296C369.043 260.514 368.953 260.76 368.897 261.035C368.841 261.299 368.83 261.59 368.865 261.908C368.919 262.395 369.072 262.759 369.324 263C369.586 263.239 369.903 263.338 370.274 263.297ZM382.277 266.074C381.153 266.198 380.231 266.064 379.512 265.671C378.791 265.268 378.353 264.651 378.196 263.821L380.025 263.619C380.124 264.026 380.355 264.317 380.717 264.492C381.08 264.666 381.548 264.722 382.12 264.658C382.64 264.601 383.018 264.479 383.255 264.291C383.501 264.092 383.607 263.839 383.573 263.532C383.548 263.309 383.454 263.137 383.291 263.016C383.126 262.884 382.831 262.793 382.407 262.743L381.07 262.585C380.158 262.493 379.463 262.27 378.983 261.915C378.514 261.548 378.245 261.058 378.177 260.443C378.093 259.69 378.314 259.07 378.84 258.582C379.375 258.083 380.151 257.777 381.169 257.665C382.176 257.553 383.006 257.681 383.659 258.049C384.32 258.405 384.725 258.956 384.872 259.702L383.043 259.904C382.954 259.581 382.756 259.351 382.451 259.213C382.157 259.074 381.766 259.031 381.278 259.085C380.822 259.136 380.486 259.248 380.269 259.422C380.051 259.586 379.957 259.806 379.988 260.081C380.011 260.293 380.121 260.464 380.318 260.592C380.514 260.71 380.829 260.798 381.265 260.857L382.7 261.021C383.515 261.113 384.148 261.359 384.6 261.76C385.063 262.16 385.328 262.662 385.395 263.266C385.481 264.04 385.25 264.672 384.703 265.161C384.156 265.651 383.348 265.955 382.277 266.074ZM391.9 265.009C391.126 265.095 390.476 264.984 389.948 264.678C389.43 264.359 389.077 263.883 388.889 263.25L389.046 263.216L389.619 268.4L387.616 268.622L386.358 257.251L388.314 257.035L388.516 258.864L388.353 258.85C388.435 258.229 388.721 257.714 389.213 257.306C389.704 256.897 390.332 256.651 391.095 256.566C391.816 256.487 392.461 256.592 393.03 256.883C393.608 257.163 394.08 257.599 394.446 258.192C394.812 258.784 395.042 259.505 395.136 260.353C395.231 261.212 395.16 261.976 394.923 262.646C394.686 263.316 394.311 263.857 393.798 264.268C393.286 264.679 392.653 264.926 391.9 265.009ZM391.208 263.411C391.855 263.34 392.345 263.06 392.677 262.573C393.008 262.075 393.129 261.417 393.038 260.601C392.948 259.785 392.682 259.176 392.241 258.774C391.81 258.371 391.271 258.205 390.624 258.276C389.988 258.347 389.499 258.632 389.157 259.131C388.814 259.62 388.688 260.272 388.778 261.089C388.869 261.905 389.134 262.514 389.576 262.916C390.018 263.318 390.562 263.483 391.208 263.411ZM397.371 264.243L396.104 252.793L398.108 252.571L399.375 264.021L397.371 264.243ZM403.064 263.613L402.497 258.492C402.442 257.994 402.273 257.631 401.991 257.405C401.708 257.179 401.323 257.093 400.835 257.147C400.411 257.193 400.04 257.331 399.722 257.559C399.414 257.787 399.184 258.08 399.031 258.441C398.888 258.8 398.841 259.202 398.891 259.648L398.469 257.73C398.679 257.106 399.03 256.59 399.521 256.181C400.011 255.762 400.628 255.511 401.37 255.429C402.25 255.332 402.961 255.505 403.504 255.95C404.057 256.393 404.38 257.028 404.471 257.855L405.084 263.389L403.064 263.613ZM411.006 262.895C410.147 262.99 409.375 262.893 408.688 262.604C408.012 262.314 407.459 261.871 407.028 261.275C406.608 260.677 406.352 259.965 406.26 259.138C406.169 258.311 406.263 257.565 406.544 256.901C406.834 256.225 407.278 255.677 407.875 255.257C408.471 254.826 409.193 254.564 410.042 254.47C410.847 254.381 411.566 254.473 412.197 254.746C412.827 255.009 413.34 255.425 413.736 255.993C414.131 256.561 414.373 257.248 414.463 258.053C414.479 258.202 414.489 258.34 414.492 258.469C414.496 258.597 414.494 258.726 414.487 258.855L407.569 259.621L407.414 258.221L412.79 257.627L412.418 258.054C412.334 257.291 412.096 256.738 411.703 256.395C411.311 256.052 410.803 255.915 410.177 255.984C409.498 256.059 408.984 256.352 408.632 256.863C408.292 257.373 408.17 258.068 408.267 258.948C408.364 259.817 408.634 260.464 409.078 260.887C409.531 261.298 410.123 261.463 410.855 261.382C411.279 261.335 411.641 261.215 411.942 261.021C412.242 260.826 412.448 260.557 412.56 260.212L414.453 260.002C414.272 260.795 413.889 261.449 413.302 261.965C412.725 262.479 411.96 262.789 411.006 262.895ZM416.67 262.107L415.773 253.997L417.729 253.78L417.945 255.736L417.993 255.731L418.674 261.885L416.67 262.107ZM418.206 257.655L417.786 255.754C417.901 255.044 418.166 254.483 418.582 254.072C418.998 253.661 419.524 253.42 420.161 253.35C420.383 253.325 420.545 253.329 420.645 253.361L420.854 255.253C420.799 255.238 420.723 255.236 420.628 255.246C420.531 255.246 420.414 255.254 420.276 255.269C419.502 255.355 418.943 255.588 418.599 255.97C418.255 256.351 418.124 256.913 418.206 257.655ZM426.594 261.17C425.735 261.265 424.963 261.168 424.276 260.879C423.6 260.589 423.047 260.146 422.616 259.55C422.195 258.952 421.94 258.24 421.848 257.413C421.757 256.586 421.851 255.841 422.132 255.176C422.422 254.5 422.866 253.952 423.463 253.532C424.059 253.101 424.781 252.839 425.63 252.745C426.435 252.656 427.154 252.748 427.785 253.022C428.415 253.284 428.928 253.7 429.324 254.268C429.719 254.836 429.961 255.523 430.051 256.328C430.067 256.477 430.077 256.615 430.08 256.744C430.084 256.872 430.082 257.001 430.075 257.131L423.157 257.896L423.002 256.497L428.377 255.902L428.006 256.329C427.922 255.566 427.684 255.013 427.291 254.67C426.899 254.327 426.391 254.19 425.765 254.259C425.086 254.334 424.572 254.627 424.22 255.138C423.88 255.648 423.758 256.343 423.855 257.223C423.952 258.093 424.222 258.739 424.666 259.162C425.119 259.573 425.711 259.738 426.443 259.657C426.867 259.61 427.229 259.49 427.53 259.296C427.83 259.101 428.036 258.832 428.148 258.487L430.041 258.277C429.86 259.07 429.477 259.724 428.89 260.24C428.313 260.754 427.548 261.064 426.594 261.17Z" fill="#2D2E3D" fill-opacity="0.9"/>
</g>
<g filter="url(#filter10_bdi_2338_248)">
<rect x="42.8828" y="245.529" width="110" height="42" rx="21" transform="rotate(-14.3297 42.8828 245.529)" fill="url(#paint17_linear_2338_248)"/>
<rect x="42.8828" y="245.529" width="110" height="42" rx="21" transform="rotate(-14.3297 42.8828 245.529)" fill="url(#paint18_radial_2338_248)" fill-opacity="0.2"/>
<rect x="43.7951" y="246.07" width="108.5" height="40.5" rx="20.25" transform="rotate(-14.3297 43.7951 246.07)" stroke="url(#paint19_linear_2338_248)" stroke-width="1.5"/>
<path d="M79.7155 264.152C78.4753 264.469 77.3412 264.533 76.3132 264.344C75.2928 264.142 74.4305 263.718 73.7261 263.073C73.0293 262.414 72.5464 261.557 72.2771 260.503C72.05 259.615 71.9952 258.753 72.1125 257.92C72.2272 257.076 72.5065 256.294 72.9503 255.575C73.4046 254.854 74.0158 254.23 74.7841 253.703C75.56 253.164 76.4906 252.755 77.5757 252.478C78.6609 252.201 79.6553 252.151 80.5591 252.327C81.4603 252.493 82.2189 252.855 82.8349 253.414C83.4612 253.969 83.8892 254.697 84.1189 255.596C84.2694 256.185 84.3151 256.773 84.256 257.361C84.2072 257.946 84.0716 258.492 83.8491 259C83.624 259.498 83.3261 259.927 82.9554 260.286C82.5821 260.634 82.1525 260.871 81.6668 260.995C81.2844 261.092 80.9378 261.093 80.6268 260.996C80.3236 260.886 80.0885 260.699 79.9215 260.433C79.7546 260.168 79.6818 259.839 79.7031 259.449L79.806 259.852C79.6871 260.377 79.4605 260.826 79.126 261.198C78.7916 261.569 78.3867 261.816 77.9113 261.937C77.2396 262.109 76.6298 262.006 76.082 261.629C75.5445 261.248 75.1754 260.666 74.9748 259.88C74.8402 259.353 74.7961 258.836 74.8427 258.329C74.8866 257.811 75.0083 257.34 75.208 256.914C75.4153 256.476 75.685 256.11 76.0173 255.816C76.3572 255.509 76.7493 255.299 77.1937 255.185C77.8448 255.019 78.3819 255.074 78.8051 255.351C79.2359 255.616 79.4954 256.028 79.5836 256.589L79.4247 256.613L79.4324 255.092L81.1841 254.645L81.1727 258.479C81.175 258.918 81.2283 259.235 81.3328 259.429C81.4347 259.612 81.5993 259.674 81.8266 259.616C82.054 259.558 82.2499 259.42 82.4143 259.202C82.5891 258.981 82.7223 258.705 82.8137 258.373C82.9051 258.042 82.9512 257.683 82.9518 257.298C82.9497 256.902 82.8972 256.502 82.7943 256.099C82.6068 255.366 82.2844 254.793 81.827 254.381C81.3669 253.959 80.799 253.697 80.1232 253.594C79.4552 253.479 78.7026 253.528 77.8655 253.742C76.9663 253.972 76.2087 254.303 75.5926 254.735C74.9739 255.158 74.4901 255.655 74.1412 256.229C73.7896 256.792 73.5729 257.409 73.4909 258.079C73.4064 258.74 73.4538 259.421 73.6333 260.124C73.8419 260.94 74.2088 261.601 74.7339 262.105C75.2668 262.596 75.9217 262.919 76.6986 263.073C77.4729 263.216 78.3406 263.165 79.3017 262.92C79.8495 262.78 80.3775 262.585 80.8859 262.334C81.4046 262.08 81.8908 261.785 82.3444 261.449L83.1025 262.477C82.6775 262.839 82.1721 263.167 81.5863 263.459C81.0109 263.749 80.3873 263.98 79.7155 264.152ZM78.2871 260.306C78.5145 260.248 78.7132 260.142 78.8831 259.988C79.0505 259.824 79.1814 259.626 79.2759 259.393C79.3808 259.157 79.4415 258.899 79.4582 258.619C79.4749 258.34 79.445 258.05 79.3684 257.751C79.2496 257.286 79.0487 256.952 78.7656 256.749C78.48 256.535 78.1511 256.476 77.7791 256.571C77.5517 256.629 77.3543 256.74 77.187 256.904C77.0171 257.058 76.8797 257.252 76.7748 257.488C76.6803 257.722 76.6247 257.978 76.608 258.258C76.5887 258.527 76.6186 258.816 76.6978 259.126C76.8192 259.602 77.0215 259.941 77.3045 260.144C77.5979 260.344 77.9254 260.398 78.2871 260.306ZM89.3367 261.529L84.8987 254.241L86.945 253.718L89.8879 259.291L89.7484 259.327L89.9835 252.942L91.7662 252.486L95.0656 257.968L94.9106 258.008L94.8046 251.71L96.8044 251.199L96.4057 259.723L94.5764 260.19L91.2928 254.771L91.4478 254.731L91.1659 261.062L89.3367 261.529ZM104.937 257.544C104.832 257.35 104.733 257.134 104.639 256.894C104.555 256.651 104.468 256.354 104.378 256.002L104.316 256.018L103.358 252.267C103.252 251.853 103.054 251.574 102.763 251.428C102.481 251.269 102.102 251.25 101.626 251.371C101.161 251.49 100.811 251.673 100.577 251.92C100.351 252.154 100.248 252.439 100.267 252.775L98.3916 253.254C98.2868 252.5 98.4864 251.816 98.9903 251.202C99.4942 250.589 100.268 250.149 101.312 249.883C102.397 249.606 103.282 249.644 103.967 249.997C104.649 250.34 105.112 250.987 105.354 251.938L106.269 255.519C106.333 255.767 106.413 256.016 106.51 256.267C106.617 256.515 106.744 256.774 106.89 257.045L104.937 257.544ZM102.233 258.4C101.437 258.603 100.751 258.569 100.175 258.298C99.6073 258.014 99.2375 257.536 99.0659 256.864C98.8811 256.14 98.9981 255.5 99.4169 254.941C99.8358 254.383 100.507 253.908 101.431 253.518L103.801 252.517L104.118 253.757L102.062 254.629C101.615 254.82 101.297 255.039 101.107 255.286C100.927 255.53 100.879 255.817 100.964 256.148C101.04 256.448 101.208 256.652 101.467 256.762C101.724 256.862 102.044 256.863 102.426 256.765C102.984 256.623 103.413 256.364 103.714 255.99C104.015 255.616 104.114 255.228 104.011 254.824L104.533 255.963C104.471 256.584 104.241 257.105 103.842 257.526C103.451 257.934 102.915 258.226 102.233 258.4ZM113.087 259.013C112.043 259.279 111.127 259.271 110.339 258.988C109.562 258.702 109.012 258.187 108.69 257.444L110.55 256.969C110.712 257.214 110.966 257.369 111.313 257.434C111.673 257.508 112.106 257.48 112.613 257.35C113.346 257.163 113.847 256.859 114.114 256.438C114.383 256.028 114.433 255.492 114.264 254.831L113.829 253.126L113.976 253.121C114 253.731 113.804 254.277 113.387 254.758C112.968 255.228 112.391 255.557 111.657 255.745C110.955 255.924 110.298 255.916 109.686 255.72C109.085 255.521 108.564 255.164 108.124 254.649C107.682 254.123 107.359 253.463 107.156 252.667C106.95 251.861 106.92 251.12 107.067 250.444C107.213 249.768 107.513 249.196 107.966 248.728C108.427 248.247 109.019 247.914 109.742 247.729C110.486 247.539 111.142 247.564 111.71 247.805C112.285 248.032 112.711 248.446 112.985 249.048L112.865 249.095L112.386 247.219L114.293 246.732L116.229 254.313C116.517 255.439 116.377 256.422 115.81 257.26C115.255 258.106 114.348 258.69 113.087 259.013ZM111.897 254.032C112.528 253.871 112.975 253.531 113.238 253.012C113.51 252.481 113.547 251.827 113.349 251.052C113.151 250.277 112.806 249.726 112.316 249.4C111.825 249.074 111.265 248.992 110.634 249.153C110.014 249.311 109.568 249.656 109.297 250.188C109.023 250.709 108.985 251.358 109.183 252.133C109.381 252.908 109.725 253.458 110.216 253.784C110.706 254.111 111.267 254.193 111.897 254.032ZM122.213 253.296C121.376 253.51 120.598 253.521 119.877 253.331C119.168 253.138 118.558 252.776 118.048 252.246C117.548 251.713 117.196 251.044 116.99 250.237C116.784 249.431 116.774 248.68 116.959 247.983C117.152 247.273 117.515 246.668 118.048 246.169C118.578 245.659 119.257 245.299 120.084 245.088C120.869 244.887 121.593 244.878 122.257 245.061C122.917 245.233 123.483 245.573 123.954 246.081C124.425 246.588 124.76 247.234 124.961 248.02C124.998 248.164 125.027 248.3 125.048 248.427C125.07 248.553 125.086 248.681 125.097 248.811L118.353 250.533L118.005 249.169L123.245 247.83L122.937 248.306C122.747 247.561 122.434 247.047 121.997 246.762C121.561 246.477 121.038 246.412 120.429 246.568C119.767 246.737 119.298 247.099 119.022 247.654C118.756 248.207 118.732 248.912 118.951 249.77C119.168 250.617 119.525 251.219 120.024 251.576C120.53 251.92 121.14 252.001 121.853 251.819C122.266 251.714 122.608 251.544 122.878 251.309C123.149 251.075 123.315 250.779 123.378 250.422L125.223 249.951C125.155 250.761 124.866 251.462 124.357 252.055C123.858 252.645 123.143 253.058 122.213 253.296ZM127.713 251.726L125.693 243.82L127.6 243.333L128.087 245.239L128.133 245.228L129.666 251.227L127.713 251.726ZM128.612 247.103L127.932 245.279C127.946 244.56 128.131 243.968 128.485 243.503C128.84 243.038 129.327 242.726 129.947 242.568C130.164 242.512 130.325 242.493 130.428 242.511L130.9 244.356C130.843 244.348 130.768 244.356 130.675 244.38C130.579 244.394 130.464 244.418 130.33 244.452C129.575 244.645 129.054 244.954 128.767 245.38C128.479 245.805 128.428 246.38 128.612 247.103Z" fill="#2D2E3D" fill-opacity="0.9"/>
</g>
</g>
<rect x="0.5" y="1" width="535" height="314" rx="19.5" stroke="url(#paint20_linear_2338_248)" stroke-opacity="0.2"/>
</g>
<defs>
<filter id="filter0_b_2338_248" x="-50" y="-49.5" width="636" height="415" filterUnits="userSpaceOnUse" color-interpolation-filters="sRGB">
<feFlood flood-opacity="0" result="BackgroundImageFix"/>
<feGaussianBlur in="BackgroundImageFix" stdDeviation="25"/>
<feComposite in2="SourceAlpha" operator="in" result="effect1_backgroundBlur_2338_248"/>
<feBlend mode="normal" in="SourceGraphic" in2="effect1_backgroundBlur_2338_248" result="shape"/>
</filter>
<filter id="filter1_b_2338_248" x="11.7161" y="16.0811" width="453.743" height="422.861" filterUnits="userSpaceOnUse" color-interpolation-filters="sRGB">
<feFlood flood-opacity="0" result="BackgroundImageFix"/>
<feGaussianBlur in="BackgroundImageFix" stdDeviation="96.3373"/>
<feComposite in2="SourceAlpha" operator="in" result="effect1_backgroundBlur_2338_248"/>
<feBlend mode="normal" in="SourceGraphic" in2="effect1_backgroundBlur_2338_248" result="shape"/>
</filter>
<filter id="filter2_b_2338_248" x="11.2375" y="-145.176" width="468.583" height="428.911" filterUnits="userSpaceOnUse" color-interpolation-filters="sRGB">
<feFlood flood-opacity="0" result="BackgroundImageFix"/>
<feGaussianBlur in="BackgroundImageFix" stdDeviation="96.3373"/>
<feComposite in2="SourceAlpha" operator="in" result="effect1_backgroundBlur_2338_248"/>
<feBlend mode="normal" in="SourceGraphic" in2="effect1_backgroundBlur_2338_248" result="shape"/>
</filter>
<filter id="filter3_b_2338_248" x="173.064" y="-198.053" width="464.932" height="454.665" filterUnits="userSpaceOnUse" color-interpolation-filters="sRGB">
<feFlood flood-opacity="0" result="BackgroundImageFix"/>
<feGaussianBlur in="BackgroundImageFix" stdDeviation="96.3373"/>
<feComposite in2="SourceAlpha" operator="in" result="effect1_backgroundBlur_2338_248"/>
<feBlend mode="normal" in="SourceGraphic" in2="effect1_backgroundBlur_2338_248" result="shape"/>
</filter>
<filter id="filter4_b_2338_248" x="-136.175" y="-51.6523" width="457.056" height="463.44" filterUnits="userSpaceOnUse" color-interpolation-filters="sRGB">
<feFlood flood-opacity="0" result="BackgroundImageFix"/>
<feGaussianBlur in="BackgroundImageFix" stdDeviation="96.3373"/>
<feComposite in2="SourceAlpha" operator="in" result="effect1_backgroundBlur_2338_248"/>
<feBlend mode="normal" in="SourceGraphic" in2="effect1_backgroundBlur_2338_248" result="shape"/>
</filter>
<filter id="filter5_f_2338_248" x="-32.21" y="74.29" width="601.42" height="601.42" filterUnits="userSpaceOnUse" color-interpolation-filters="sRGB">
<feFlood flood-opacity="0" result="BackgroundImageFix"/>
<feBlend mode="normal" in="SourceGraphic" in2="BackgroundImageFix" result="shape"/>
<feGaussianBlur stdDeviation="105.605" result="effect1_foregroundBlur_2338_248"/>
</filter>
<filter id="filter6_bdi_2338_248" x="-83" y="-88" width="397.824" height="327.958" filterUnits="userSpaceOnUse" color-interpolation-filters="sRGB">
<feFlood flood-opacity="0" result="BackgroundImageFix"/>
<feGaussianBlur in="BackgroundImageFix" stdDeviation="67"/>
<feComposite in2="SourceAlpha" operator="in" result="effect1_backgroundBlur_2338_248"/>
<feColorMatrix in="SourceAlpha" type="matrix" values="0 0 0 0 0 0 0 0 0 0 0 0 0 0 0 0 0 0 127 0" result="hardAlpha"/>
<feOffset/>
<feGaussianBlur stdDeviation="12"/>
<feComposite in2="hardAlpha" operator="out"/>
<feColorMatrix type="matrix" values="0 0 0 0 0.176471 0 0 0 0 0.180392 0 0 0 0 0.239216 0 0 0 0.1 0"/>
<feBlend mode="normal" in2="effect1_backgroundBlur_2338_248" result="effect2_dropShadow_2338_248"/>
<feBlend mode="normal" in="SourceGraphic" in2="effect2_dropShadow_2338_248" result="shape"/>
<feColorMatrix in="SourceAlpha" type="matrix" values="0 0 0 0 0 0 0 0 0 0 0 0 0 0 0 0 0 0 127 0" result="hardAlpha"/>
<feOffset dy="4"/>
<feGaussianBlur stdDeviation="7"/>
<feComposite in2="hardAlpha" operator="arithmetic" k2="-1" k3="1"/>
<feColorMatrix type="matrix" values="0 0 0 0 1 0 0 0 0 1 0 0 0 0 1 0 0 0 0.55 0"/>
<feBlend mode="normal" in2="shape" result="effect3_innerShadow_2338_248"/>
</filter>
<filter id="filter7_bdi_2338_248" x="72.501" y="-25.4822" width="397.677" height="340.366" filterUnits="userSpaceOnUse" color-interpolation-filters="sRGB">
<feFlood flood-opacity="0" result="BackgroundImageFix"/>
<feGaussianBlur in="BackgroundImageFix" stdDeviation="67"/>
<feComposite in2="SourceAlpha" operator="in" result="effect1_backgroundBlur_2338_248"/>
<feColorMatrix in="SourceAlpha" type="matrix" values="0 0 0 0 0 0 0 0 0 0 0 0 0 0 0 0 0 0 127 0" result="hardAlpha"/>
<feOffset/>
<feGaussianBlur stdDeviation="12"/>
<feComposite in2="hardAlpha" operator="out"/>
<feColorMatrix type="matrix" values="0 0 0 0 0.176471 0 0 0 0 0.180392 0 0 0 0 0.239216 0 0 0 0.1 0"/>
<feBlend mode="normal" in2="effect1_backgroundBlur_2338_248" result="effect2_dropShadow_2338_248"/>
<feBlend mode="normal" in="SourceGraphic" in2="effect2_dropShadow_2338_248" result="shape"/>
<feColorMatrix in="SourceAlpha" type="matrix" values="0 0 0 0 0 0 0 0 0 0 0 0 0 0 0 0 0 0 127 0" result="hardAlpha"/>
<feOffset dy="4"/>
<feGaussianBlur stdDeviation="7"/>
<feComposite in2="hardAlpha" operator="arithmetic" k2="-1" k3="1"/>
<feColorMatrix type="matrix" values="0 0 0 0 1 0 0 0 0 1 0 0 0 0 1 0 0 0 0.55 0"/>
<feBlend mode="normal" in2="shape" result="effect3_innerShadow_2338_248"/>
</filter>
<filter id="filter8_bdi_2338_248" x="250.001" y="-66" width="398.645" height="340.662" filterUnits="userSpaceOnUse" color-interpolation-filters="sRGB">
<feFlood flood-opacity="0" result="BackgroundImageFix"/>
<feGaussianBlur in="BackgroundImageFix" stdDeviation="67"/>
<feComposite in2="SourceAlpha" operator="in" result="effect1_backgroundBlur_2338_248"/>
<feColorMatrix in="SourceAlpha" type="matrix" values="0 0 0 0 0 0 0 0 0 0 0 0 0 0 0 0 0 0 127 0" result="hardAlpha"/>
<feOffset/>
<feGaussianBlur stdDeviation="12"/>
<feComposite in2="hardAlpha" operator="out"/>
<feColorMatrix type="matrix" values="0 0 0 0 0.176471 0 0 0 0 0.180392 0 0 0 0 0.239216 0 0 0 0.1 0"/>
<feBlend mode="normal" in2="effect1_backgroundBlur_2338_248" result="effect2_dropShadow_2338_248"/>
<feBlend mode="normal" in="SourceGraphic" in2="effect2_dropShadow_2338_248" result="shape"/>
<feColorMatrix in="SourceAlpha" type="matrix" values="0 0 0 0 0 0 0 0 0 0 0 0 0 0 0 0 0 0 127 0" result="hardAlpha"/>
<feOffset dy="4"/>
<feGaussianBlur stdDeviation="7"/>
<feComposite in2="hardAlpha" operator="arithmetic" k2="-1" k3="1"/>
<feColorMatrix type="matrix" values="0 0 0 0 1 0 0 0 0 1 0 0 0 0 1 0 0 0 0.55 0"/>
<feBlend mode="normal" in2="shape" result="effect3_innerShadow_2338_248"/>
</filter>
<filter id="filter9_bdi_2338_248" x="203" y="97" width="387.916" height="322.503" filterUnits="userSpaceOnUse" color-interpolation-filters="sRGB">
<feFlood flood-opacity="0" result="BackgroundImageFix"/>
<feGaussianBlur in="BackgroundImageFix" stdDeviation="67"/>
<feComposite in2="SourceAlpha" operator="in" result="effect1_backgroundBlur_2338_248"/>
<feColorMatrix in="SourceAlpha" type="matrix" values="0 0 0 0 0 0 0 0 0 0 0 0 0 0 0 0 0 0 127 0" result="hardAlpha"/>
<feOffset/>
<feGaussianBlur stdDeviation="12"/>
<feComposite in2="hardAlpha" operator="out"/>
<feColorMatrix type="matrix" values="0 0 0 0 0.176471 0 0 0 0 0.180392 0 0 0 0 0.239216 0 0 0 0.1 0"/>
<feBlend mode="normal" in2="effect1_backgroundBlur_2338_248" result="effect2_dropShadow_2338_248"/>
<feBlend mode="normal" in="SourceGraphic" in2="effect2_dropShadow_2338_248" result="shape"/>
<feColorMatrix in="SourceAlpha" type="matrix" values="0 0 0 0 0 0 0 0 0 0 0 0 0 0 0 0 0 0 127 0" result="hardAlpha"/>
<feOffset dy="4"/>
<feGaussianBlur stdDeviation="7"/>
<feComposite in2="hardAlpha" operator="arithmetic" k2="-1" k3="1"/>
<feColorMatrix type="matrix" values="0 0 0 0 1 0 0 0 0 1 0 0 0 0 1 0 0 0 0.55 0"/>
<feBlend mode="normal" in2="shape" result="effect3_innerShadow_2338_248"/>
</filter>
<filter id="filter10_bdi_2338_248" x="-91.1172" y="84.3035" width="384.973" height="335.918" filterUnits="userSpaceOnUse" color-interpolation-filters="sRGB">
<feFlood flood-opacity="0" result="BackgroundImageFix"/>
<feGaussianBlur in="BackgroundImageFix" stdDeviation="67"/>
<feComposite in2="SourceAlpha" operator="in" result="effect1_backgroundBlur_2338_248"/>
<feColorMatrix in="SourceAlpha" type="matrix" values="0 0 0 0 0 0 0 0 0 0 0 0 0 0 0 0 0 0 127 0" result="hardAlpha"/>
<feOffset/>
<feGaussianBlur stdDeviation="12"/>
<feComposite in2="hardAlpha" operator="out"/>
<feColorMatrix type="matrix" values="0 0 0 0 0.176471 0 0 0 0 0.180392 0 0 0 0 0.239216 0 0 0 0.1 0"/>
<feBlend mode="normal" in2="effect1_backgroundBlur_2338_248" result="effect2_dropShadow_2338_248"/>
<feBlend mode="normal" in="SourceGraphic" in2="effect2_dropShadow_2338_248" result="shape"/>
<feColorMatrix in="SourceAlpha" type="matrix" values="0 0 0 0 0 0 0 0 0 0 0 0 0 0 0 0 0 0 127 0" result="hardAlpha"/>
<feOffset dy="4"/>
<feGaussianBlur stdDeviation="7"/>
<feComposite in2="hardAlpha" operator="arithmetic" k2="-1" k3="1"/>
<feColorMatrix type="matrix" values="0 0 0 0 1 0 0 0 0 1 0 0 0 0 1 0 0 0 0.55 0"/>
<feBlend mode="normal" in2="shape" result="effect3_innerShadow_2338_248"/>
</filter>
<radialGradient id="paint0_radial_2338_248" cx="0" cy="0" r="1" gradientUnits="userSpaceOnUse" gradientTransform="translate(268 319.437) rotate(-90) scale(318.937 676.625)">
<stop offset="0.000100017" stop-color="#52EF62" stop-opacity="0.05"/>
<stop offset="1" stop-color="#52EF62" stop-opacity="0.1"/>
</radialGradient>
<linearGradient id="paint1_linear_2338_248" x1="242.328" y1="212.326" x2="242.328" y2="231.115" gradientUnits="userSpaceOnUse">
<stop stop-color="#52EF62"/>
<stop offset="1" stop-color="#52EF62"/>
</linearGradient>
<linearGradient id="paint2_linear_2338_248" x1="243.541" y1="68.9947" x2="243.541" y2="91.9299" gradientUnits="userSpaceOnUse">
<stop stop-color="#52EF62"/>
<stop offset="1" stop-color="#52EF62"/>
</linearGradient>
<linearGradient id="paint3_linear_2338_248" x1="421.656" y1="-1.02073" x2="421.656" y2="21.9145" gradientUnits="userSpaceOnUse">
<stop stop-color="#52EF62"/>
<stop offset="1" stop-color="#52EF62"/>
</linearGradient>
<linearGradient id="paint4_linear_2338_248" x1="96.1288" y1="206.061" x2="96.1288" y2="228.996" gradientUnits="userSpaceOnUse">
<stop stop-color="#52EF62"/>
<stop offset="1" stop-color="#52EF62"/>
</linearGradient>
<linearGradient id="paint5_linear_2338_248" x1="113.5" y1="64.416" x2="113.5" y2="106.416" gradientUnits="userSpaceOnUse">
<stop stop-color="white"/>
<stop offset="1" stop-color="white"/>
</linearGradient>
<radialGradient id="paint6_radial_2338_248" cx="0" cy="0" r="1" gradientUnits="userSpaceOnUse" gradientTransform="translate(113.5 106.62) rotate(-90) scale(42 118.22)">
<stop stop-color="#52EF62" stop-opacity="0.7"/>
<stop offset="1" stop-color="#2D2E3D" stop-opacity="0"/>
</radialGradient>
<linearGradient id="paint7_linear_2338_248" x1="113.5" y1="64.416" x2="113.5" y2="106.416" gradientUnits="userSpaceOnUse">
<stop stop-color="white"/>
<stop offset="1" stop-color="#0E5615" stop-opacity="0.2"/>
</linearGradient>
<linearGradient id="paint8_linear_2338_248" x1="278.857" y1="108.518" x2="278.857" y2="150.518" gradientUnits="userSpaceOnUse">
<stop stop-color="white"/>
<stop offset="1" stop-color="white"/>
</linearGradient>
<radialGradient id="paint9_radial_2338_248" cx="0" cy="0" r="1" gradientUnits="userSpaceOnUse" gradientTransform="translate(278.857 150.722) rotate(-90) scale(42 116.329)">
<stop stop-color="#52EF62" stop-opacity="0.7"/>
<stop offset="1" stop-color="#2D2E3D" stop-opacity="0"/>
</radialGradient>
<linearGradient id="paint10_linear_2338_248" x1="278.857" y1="108.518" x2="278.857" y2="150.518" gradientUnits="userSpaceOnUse">
<stop stop-color="white"/>
<stop offset="1" stop-color="#0E5615" stop-opacity="0.2"/>
</linearGradient>
<linearGradient id="paint11_linear_2338_248" x1="456.871" y1="68" x2="456.871" y2="110" gradientUnits="userSpaceOnUse">
<stop stop-color="white"/>
<stop offset="1" stop-color="white"/>
</linearGradient>
<radialGradient id="paint12_radial_2338_248" cx="0" cy="0" r="1" gradientUnits="userSpaceOnUse" gradientTransform="translate(456.871 110.204) rotate(-90) scale(42 117.274)">
<stop stop-color="#52EF62" stop-opacity="0.7"/>
<stop offset="1" stop-color="#2D2E3D" stop-opacity="0"/>
</radialGradient>
<linearGradient id="paint13_linear_2338_248" x1="456.871" y1="68" x2="456.871" y2="110" gradientUnits="userSpaceOnUse">
<stop stop-color="white"/>
<stop offset="1" stop-color="#0E5615" stop-opacity="0.2"/>
</linearGradient>
<linearGradient id="paint14_linear_2338_248" x1="395" y1="243.758" x2="395" y2="285.758" gradientUnits="userSpaceOnUse">
<stop stop-color="white"/>
<stop offset="1" stop-color="white"/>
</linearGradient>
<radialGradient id="paint15_radial_2338_248" cx="0" cy="0" r="1" gradientUnits="userSpaceOnUse" gradientTransform="translate(395 285.962) rotate(-90) scale(42 109.708)">
<stop stop-color="#52EF62" stop-opacity="0.7"/>
<stop offset="1" stop-color="#2D2E3D" stop-opacity="0"/>
</radialGradient>
<linearGradient id="paint16_linear_2338_248" x1="395" y1="243.758" x2="395" y2="285.758" gradientUnits="userSpaceOnUse">
<stop stop-color="white"/>
<stop offset="1" stop-color="#0E5615" stop-opacity="0.2"/>
</linearGradient>
<linearGradient id="paint17_linear_2338_248" x1="97.8828" y1="245.529" x2="97.8828" y2="287.529" gradientUnits="userSpaceOnUse">
<stop stop-color="white"/>
<stop offset="1" stop-color="white"/>
</linearGradient>
<radialGradient id="paint18_radial_2338_248" cx="0" cy="0" r="1" gradientUnits="userSpaceOnUse" gradientTransform="translate(97.8828 287.732) rotate(-90) scale(42 104.034)">
<stop stop-color="#52EF62" stop-opacity="0.7"/>
<stop offset="1" stop-color="#2D2E3D" stop-opacity="0"/>
</radialGradient>
<linearGradient id="paint19_linear_2338_248" x1="97.8828" y1="245.529" x2="97.8828" y2="287.529" gradientUnits="userSpaceOnUse">
<stop stop-color="white"/>
<stop offset="1" stop-color="#0E5615" stop-opacity="0.2"/>
</linearGradient>
<linearGradient id="paint20_linear_2338_248" x1="268" y1="0.5" x2="268" y2="318.169" gradientUnits="userSpaceOnUse">
<stop stop-color="#2D2E3D" stop-opacity="0.5"/>
<stop offset="0.515" stop-color="#2D2E3D"/>
<stop offset="1" stop-color="#2D2E3D" stop-opacity="0.5"/>
</linearGradient>
<clipPath id="clip0_2338_248">
<rect y="0.5" width="536" height="315" rx="20" fill="white"/>
</clipPath>
<clipPath id="clip1_2338_248">
<rect x="217.357" y="108.518" width="123" height="42" rx="21" transform="rotate(14.98 217.357 108.518)" fill="white"/>
</clipPath>
<clipPath id="clip2_2338_248">
<rect x="394.871" y="68" width="124" height="42" rx="21" transform="rotate(15 394.871 68)" fill="white"/>
</clipPath>
</defs>
</svg>
